HIERARCHY
ROOT pelvis
{
  OFFSET 0 100 0
  CHANNELS 6 Xposition Yposition Zposition Zrotation Xrotation Yrotation
  JOINT pelvis_right_femur
  {
    OFFSET -10.78128 -3.44521 -0.5502486
    CHANNELS 3 Zrotation Xrotation Yrotation
    JOINT right_femur_tibia
    {
      OFFSET -0.8047443 -44.0398 -0.1307829
      CHANNELS 3 Zrotation Xrotation Yrotation
      JOINT right_tibia_foot
      {
        OFFSET 3.006224 -47.83518 -5
        CHANNELS 3 Zrotation Xrotation Yrotation
        End Site
        {
          OFFSET 0 -5 15
        }
      }
    }
  }
  JOINT pelvis_left_femur
  {
    OFFSET 10.78128 -3.44521 -0.5502486
    CHANNELS 3 Zrotation Xrotation Yrotation
    JOINT left_femur_tibia
    {
      OFFSET 0.8047443 -44.0398 -0.1307829
      CHANNELS 3 Zrotation Xrotation Yrotation
      JOINT left_tibia_foot
      {
        OFFSET -4.370144 -48.10324 -4.275266
        CHANNELS 3 Zrotation Xrotation Yrotation
        End Site
        {
          OFFSET 0 -5 15
        }
      }
    }
  }
  JOINT pelvis_spine1
  {
    OFFSET 0 6.468898 -3.129235
    CHANNELS 3 Zrotation Xrotation Yrotation
    JOINT spine1
    {
      OFFSET 0 23.15396 4.99043
      CHANNELS 3 Zrotation Xrotation Yrotation
      JOINT spine2
      {
        OFFSET 0 20.79997 -5.064912
        CHANNELS 3 Zrotation Xrotation Yrotation
        JOINT neck
        {
          OFFSET 0 14.38658 9.616178
          CHANNELS 3 Zrotation Xrotation Yrotation
          End Site
          {
            OFFSET 0 20 0
          }
        }
      }
      JOINT right_manubrium
      {
        OFFSET -5.722621 16.35077 3.967754
        CHANNELS 3 Zrotation Xrotation Yrotation
        JOINT right_clavicle
        {
          OFFSET -13.16364 1.694482 -4.693211
          CHANNELS 3 Zrotation Xrotation Yrotation
          JOINT right_humerus
          {
            OFFSET -28.5034 -0.3100689 -2.792744
            CHANNELS 3 Zrotation Xrotation Yrotation
            JOINT right_radius
            {
              OFFSET -25.15693 0.02248979 -1.271978
              CHANNELS 3 Zrotation Xrotation Yrotation
              End Site
              {
                OFFSET -15 0 0
              }
            }
          }
        }
      }
      JOINT left_manubrium
      {
        OFFSET 5.722621 16.35077 3.967754
        CHANNELS 3 Zrotation Xrotation Yrotation
        JOINT left_clavicle
        {
          OFFSET 13.16364 1.694482 -4.693211
          CHANNELS 3 Zrotation Xrotation Yrotation
          JOINT left_humerus
          {
            OFFSET 29.39168 -1.063119 -2.237045
            CHANNELS 3 Zrotation Xrotation Yrotation
            JOINT left_radius
            {
              OFFSET 24.59957 -0.9528479 0.9047498
              CHANNELS 3 Zrotation Xrotation Yrotation
              End Site
              {
                OFFSET 15 -0 -0
              }
            }
          }
        }
      }
    }
  }
}
MOTION
Frames: 21
Frame Time: 0.0416666666667
0 103.5113 0 1.142391 -0.4611935 -0.02622861 3.833353 -16.43178 11.30487 -0 38.85539 -0 -4.762282 -17.92442 -4.38927 -7.610139 10.47083 -24.17354 -0 3.877331 -0 11.98285 -16.31971 29.12781 -4.089467 -4.224238 4.960846 2.866124 9.414255 -7.546574 1.770451 22.02039 6.170137 2.073668 -25.38792 10.02446 5.819977 -20.56649 11.49422 85.74233 34.74009 -18.60173 -0 0 16.67185 -5.822907 8.040505 5.189559 5.24599 -18.16166 -0.8061035 -94.22798 26.78047 22.84875 0 0 -15.73767 7.592878 16.06381 5.742504
0.3198406 103.4187 1.497218 0.9149605 -0.3480174 -0.04350155 4.051072 -17.65071 10.91338 -0 38.47842 -0 -5.08853 -16.70487 -4.149656 -7.376515 10.60526 -23.82457 -0 4.035068 -0 11.42805 -16.69622 28.66693 -3.851478 -4.002147 4.879693 2.71781 9.477006 -7.536618 1.796403 21.94807 6.308345 2.294415 -25.36065 10.04047 5.834103 -20.41018 11.451 85.87646 34.91376 -18.6959 -0 0 16.43177 -6.231272 8.320942 5.105087 5.499733 -18.5768 -0.9042293 -93.95576 26.64056 22.4808 0 0 -16.17541 8.06621 16.32077 5.366086
0.6004278 103.2684 3.310244 0.3088844 -0.1435598 -0.004523598 4.563554 -20.85167 9.637995 -0 36.80542 -0 -5.934768 -13.45049 -3.522647 -6.708798 11.1853 -22.8153 -0 4.406156 -0 9.33496 -17.98789 27.06316 -3.168912 -3.349263 4.587178 2.314347 9.579482 -7.529888 1.826461 21.81751 6.713975 2.887218 -25.2223 10.0274 5.733797 -19.96419 11.32387 86.41966 35.06814 -19.17131 -0 0 15.67907 -7.453222 9.020286 4.950476 6.13345 -19.74028 -1.2913 -93.33631 26.89106 21.56113 0 0 -17.73709 8.442423 17.07558 5.367803
0.8418999 103.0448 5.315916 -0.1016287 0.3764136 0.04601741 5.202224 -23.32036 9.227415 -0 34.38369 -0 -6.132889 -12.51708 -3.36691 -6.334813 11.63902 -22.25809 -0 4.787654 -0 7.912088 -19.04057 26.06608 -2.719543 -2.98111 4.545631 2.190577 9.413835 -7.629222 1.857138 21.59308 6.88327 3.209773 -25.25329 9.987926 5.714853 -19.66233 11.16841 86.67106 35.23636 -19.72825 -0 0 15.47746 -7.495172 9.182973 4.510623 6.650909 -20.36475 -1.288993 -93.26221 27.46021 21.22284 0 0 -18.87741 8.275138 17.35684 5.879192
1.043682 102.723 7.599868 -0.5703009 1.177349 0.1189166 6.036113 -26.42424 8.800292 -0 30.78971 -0 -6.272897 -11.55698 -3.133484 -5.950092 12.16063 -21.47676 -0 5.51469 -0 6.544582 -20.14437 24.85492 -2.2681 -2.557409 4.504519 2.175165 9.214135 -7.801214 1.873851 21.23321 7.066663 3.552601 -25.39266 9.954503 5.722609 -19.26522 11.01179 86.88634 35.54408 -20.36893 -0 0 15.18325 -7.432051 9.353323 4.017625 7.273406 -21.06267 -1.18996 -92.96551 27.61809 20.57359 0 0 -20.15205 8.58646 17.3767 5.755545
1.202832 102.3551 10.121 -0.9537917 2.292261 0.2219718 7.141791 -28.92349 9.27919 -0 27.26716 -0 -6.010432 -12.04563 -3.325202 -5.740534 12.58257 -21.1456 -0 6.775501 -0 5.380888 -21.09896 24.03918 -1.963589 -2.317982 4.614938 2.325114 8.730601 -7.996132 1.955667 20.79514 7.094964 3.732752 -25.65431 9.990387 5.886299 -18.83854 10.74959 86.81722 36.12003 -21.00156 -0 0 15.25692 -6.351275 9.204895 3.237641 7.784557 -21.21218 -0.6884853 -93.27411 28.32478 20.57344 0 0 -20.89941 8.258161 17.12356 6.415976
1.322923 101.997 12.99107 -1.360558 3.552122 0.4129934 8.464124 -31.16257 10.11366 -0 23.84478 -0 -5.694623 -12.50371 -3.629788 -5.562326 12.96287 -20.82799 -0 8.991849 -0 3.993806 -21.93647 23.07614 -1.706183 -2.046218 4.680843 2.557395 8.114457 -8.158904 2.086634 20.29573 7.094507 3.870142 -25.98043 10.10638 6.092268 -18.24533 10.40473 86.62437 36.80226 -21.52618 -0 0 15.28249 -4.940591 8.964857 2.449318 8.202745 -21.04375 -0.002810609 -93.76349 29.12625 20.73631 0 0 -21.21939 7.722979 16.54824 7.312132
1.416359 101.7261 16.31974 -1.76146 4.649035 0.7562515 9.800207 -32.52936 11.21485 -0 21.51201 -0 -5.430328 -12.64699 -4.077212 -5.404763 13.20888 -20.58638 -0 12.28235 -0 2.187952 -22.52126 21.96843 -1.494873 -1.704887 4.635368 2.789754 7.402356 -8.192594 2.284444 19.85068 7.070678 3.957226 -26.25197 10.31291 6.28197 -17.48668 9.969746 86.30204 37.38038 -21.75118 -0 0 15.23861 -3.390497 8.637112 1.778507 8.404365 -20.43839 0.7538668 -94.54398 30.16966 21.20043 0 0 -20.79682 6.711436 15.69768 8.759833
1.529637 101.3884 20.38413 -2.198785 5.09046 1.332158 10.16301 -34.47182 9.885551 -0 17.92023 -0 -5.910111 -8.666116 -3.262494 -5.052963 14.00334 -18.99609 -0 14.79973 -0 0.2419674 -22.91448 19.31193 -1.265071 -1.109285 3.966271 3.031675 7.531948 -8.306249 2.169341 19.52476 7.48949 4.160725 -26.58791 10.46823 5.909693 -16.82815 10.03489 86.86304 37.01388 -22.15479 -0 0 13.62174 -4.729209 9.40965 2.676166 8.349492 -20.90645 0.4886102 -93.26073 29.30239 19.76354 0 0 -22.04943 6.841737 14.68601 8.313825
1.782343 100.1764 25.73199 -1.845871 4.190722 2.06134 6.784746 -36.66854 1.060669 -0 5.7187 -0 -7.732588 3.114339 0.8717812 -5.191681 16.22422 -13.25225 -0 11.90873 -0 0.108081 -23.03788 13.38351 -1.133706 -1.302297 2.94725 3.402557 10.12149 -9.019213 0.8969665 19.34719 8.419008 4.133326 -27.23429 9.544855 2.98524 -17.99593 11.64157 90.85957 31.5861 -24.77973 -0 0 8.888518 -13.70059 11.12358 7.871482 7.952379 -25.29111 -2.633368 -87.19097 22.17305 14.55332 0 0 -31.10807 9.443957 12.69834 3.320466
1.963382 98.14019 33.08507 0.1435257 0.2504537 2.735814 3.806448 -28.40481 -4.58982 0 -1.890869 0 -9.456551 9.957545 0.6151695 -6.631454 19.46287 -6.811471 -0 13.84662 -0 1.66789 -20.81029 10.93779 -0.2646942 -5.005201 3.874853 2.381087 12.17707 -8.914942 0.8037273 20.73983 6.171188 1.554944 -26.18061 7.596791 -4.763471 -20.84665 11.17714 98.65654 16.31287 -28.05474 -0 0 3.871897 -20.36032 8.194996 11.2303 6.795699 -29.13451 -5.494377 -82.35916 16.57369 10.91621 0 0 -42.48116 8.805494 11.61294 3.231415
1.874839 98.00034 40.56287 -1.835791 -0.2172325 3.255505 8.109281 -25.97647 3.916507 -0 13.59952 -0 -10.61854 3.546524 -4.282858 -4.418633 20.53678 -9.701151 -0 25.28404 -0 -0.7022013 -16.33329 13.66712 1.301124 -4.839852 2.740473 2.064265 10.23905 -8.613753 2.303661 21.33039 4.959942 0.5628028 -25.87208 9.074672 -3.645981 -18.36114 9.50443 98.1066 19.37855 -26.61419 -0 0 2.902684 -13.686 8.518258 7.969485 5.546091 -25.22431 -3.113345 -84.48719 22.51477 11.77489 0 0 -34.34774 7.603356 13.53568 6.656983
1.756297 98.49567 47.55623 -2.518027 -0.8163627 3.421682 8.967574 -24.90071 5.491538 -0 17.73357 -0 -11.15116 -0.4194102 -4.984293 -3.418774 18.79044 -11.00649 -0 32.82789 -0 -2.403379 -14.04942 13.9612 1.378093 -3.258407 1.982061 2.247833 9.503584 -8.40485 2.412554 21.77725 5.307059 1.060781 -25.21354 9.480517 -1.480818 -16.58722 9.44835 96.02794 23.72748 -24.97931 -0 0 2.793706 -11.71844 9.23371 6.696943 5.039916 -23.39737 -2.633167 -85.4863 24.11495 11.41469 0 0 -28.52032 8.194903 14.0943 5.604124
1.663003 99.58645 53.95163 -2.711352 -1.652162 3.178821 8.919616 -21.40905 5.666009 -0 19.49514 -0 -11.48814 -4.357431 -4.854124 -2.873577 14.09113 -11.83919 -0 43.35709 -0 -4.21696 -11.26031 13.71276 1.361347 -1.630962 2.022194 2.190429 9.179522 -7.844032 2.405111 22.37227 5.752863 1.645741 -24.40821 9.706184 0.5428018 -15.37452 9.657299 93.76128 28.03479 -23.01175 -0 0 3.388498 -11.27735 10.58154 6.158651 4.429006 -21.78549 -2.382414 -86.94815 25.50022 12.36034 0 0 -23.28782 8.035184 14.88825 5.506514
1.569881 100.9064 59.84909 -2.20009 -3.146566 2.648341 7.937989 -15.6773 4.64863 -0 18.7133 -0 -11.46055 -7.392007 -4.608461 -2.75508 7.898362 -11.921 -0 52.48202 -0 -5.409887 -9.258919 13.73094 1.165638 -0.4996657 2.757224 1.685194 9.185896 -6.901402 2.599424 23.22696 5.760797 1.758993 -23.4327 9.82045 1.129247 -15.1378 9.837593 92.34317 29.97615 -20.9068 -0 0 4.257726 -12.65076 12.20403 6.582729 3.877812 -20.65598 -2.412084 -88.10024 26.54282 13.72098 0 0 -20.27797 6.982311 16.132 6.653037
1.493301 102.2515 65.33317 -1.510539 -4.272893 2.053924 6.842781 -9.336814 3.4302 -0 16.63978 -0 -10.90126 -9.793072 -4.044766 -2.639202 0.7346112 -11.52454 -0 57.95222 -0 -6.341323 -7.778019 13.58481 0.9057587 0.2701915 3.868408 1.052374 9.346022 -5.925915 2.6766 23.77768 5.710774 1.757214 -22.62417 9.737002 1.371896 -15.6848 10.15708 90.90678 31.25008 -18.73326 -0 0 5.970628 -14.79986 13.96957 7.741738 3.545743 -19.8208 -2.406863 -89.39024 27.24278 16.06867 0 0 -18.53614 5.348076 16.9828 8.722451
1.432788 103.3421 70.56445 -0.7951143 -5.378585 1.488221 5.899838 -2.948836 2.357988 -0 14.30577 -0 -10.1451 -11.69826 -3.576435 -2.277702 -5.962249 -10.69679 -0 58.98883 -0 -6.659924 -6.949069 14.04432 0.5234352 0.7562454 4.857024 0.4543343 9.476989 -5.021107 2.722526 24.21224 5.483928 1.585473 -21.85538 9.496845 1.199028 -16.62193 10.40309 89.56545 31.6085 -16.33893 -0 0 7.729985 -17.052 15.22396 9.217092 3.417426 -19.15586 -2.349448 -90.33352 27.32803 18.08759 0 0 -17.31423 4.022805 17.38129 10.26879
1.418678 104.0145 75.64026 -0.2210576 -6.101318 1.014623 5.205594 2.9859 1.443962 -0 11.88848 -0 -9.320395 -13.34328 -3.042638 -1.596655 -12.21502 -9.594282 -0 55.71068 -0 -6.582075 -6.607149 14.88357 0.119326 1.043231 5.661393 -0.04723041 9.513158 -4.247299 2.665849 24.44685 5.269232 1.399764 -21.19406 9.167518 0.9679034 -17.80257 10.59335 88.0403 31.79748 -13.73026 -0 0 9.740626 -19.24009 16.07437 10.90034 3.488935 -18.60513 -2.155152 -91.18928 27.02556 20.05697 0 0 -16.22467 2.995677 17.44093 11.37714
1.489419 104.0878 80.6312 0.08602947 -6.425946 0.6419556 4.804365 8.339877 0.5503393 -0 9.433845 -0 -8.564834 -14.91964 -2.476836 -0.5103105 -17.84619 -8.363019 -0 47.90946 -0 -6.122257 -6.686119 16.07714 -0.1753898 1.133321 6.172048 -0.4628822 9.431827 -3.606863 2.568858 24.51691 5.091381 1.128733 -20.68437 8.925927 0.5813419 -19.23462 10.67873 86.416 31.87714 -10.82208 -0 0 12.03582 -21.54866 16.81581 12.89226 3.654313 -18.09887 -1.857611 -92.03351 26.49796 22.11289 0 0 -15.0852 2.150463 17.60702 12.23913
1.684006 103.4896 85.61007 0.05579358 -6.239459 0.3465459 4.675609 12.67124 -0.3320151 -0 7.230096 -0 -7.991631 -16.48816 -1.831299 0.8383874 -22.28225 -7.22142 -0 36.52297 -0 -5.364637 -6.959793 17.40641 -0.319007 1.008483 6.331202 -0.7228769 9.213597 -3.170913 2.419389 24.41847 5.01905 0.8262712 -20.37055 8.821997 0.1871522 -20.72931 10.63507 84.72102 32.10647 -7.820675 -0 0 14.40108 -23.75127 17.46574 15.02602 3.851302 -17.63796 -1.455182 -92.81368 25.80994 24.12129 0 0 -13.81393 1.600403 17.95452 12.72994
2.016777 102.2486 90.65276 -0.2413806 -5.762525 0.04972015 4.696403 16.04331 -1.161486 -0 5.550345 -0 -7.71186 -17.98022 -1.171744 2.106232 -25.08573 -6.446165 -0 23.60198 -0 -4.424796 -7.246644 19.00697 -0.3913313 0.7668415 6.127132 -0.7858639 8.807624 -2.901164 2.255427 24.2927 5.058781 0.6363418 -20.14393 8.808714 -0.1351234 -21.9297 10.40113 82.98314 32.4184 -4.863328 -0 0 16.4304 -25.42118 17.60873 16.84675 4.108493 -17.12124 -0.9990257 -93.50729 24.92595 25.59683 0 0 -11.81478 1.620058 18.34737 12.34739
